<svg xmlns="http://www.w3.org/2000/svg" viewBox="0 0 120 120">
  <defs>
    <linearGradient id="g" x1="0" y1="0" x2="1" y2="1">
      <stop offset="0" stop-color="#1fd870"/>
      <stop offset="1" stop-color="#a3e635"/>
    </linearGradient>
  </defs>
  <circle cx="60" cy="60" r="58" fill="#0e2419" stroke="url(#g)" stroke-width="4"/>
  <!-- abstract handprint -->
  <g fill="url(#g)">
    <ellipse cx="40" cy="38" rx="6" ry="14"/>
    <ellipse cx="55" cy="34" rx="6" ry="16" transform="rotate(8 55 34)"/>
    <ellipse cx="70" cy="36" rx="6" ry="16" transform="rotate(-6 70 36)"/>
    <ellipse cx="83" cy="42" rx="6" ry="14" transform="rotate(-16 83 42)"/>
    <path d="M30 70c8-18 24-18 32-14s18 2 28 14c7 8 6 18-6 22-12 4-20-2-30-4-9-2-23.5 2-25-4-1.5-6 0-10 1-10z"/>
  </g>
  <text x="60" y="108" text-anchor="middle" font-family="Arial, Helvetica, sans-serif" font-weight="700" font-size="14" fill="#e6ffe9">KANGELA</text>
</svg>
